<?xml version="1.0" standalone="no"?><!DOCTYPE svg PUBLIC "-//W3C//DTD SVG 1.1//EN" "http://www.w3.org/Graphics/SVG/1.1/DTD/svg11.dtd"><svg class="icon" width="200px" height="200.00px" viewBox="0 0 1024 1024" version="1.1" xmlns="http://www.w3.org/2000/svg"><path d="M714.843 669.588l226.274 226.274c-24.994 24.994-65.516 24.994-90.51 0L624.333 669.588c24.994-24.994 65.516-24.994 90.51 0zM171.785 171.785c143.713-143.713 376.717-143.713 520.43 0 120.228 120.227 139.875 302.947 58.943 443.6l-47.25-47.252C760.94 454.26 741.957 312.036 646.96 217.04c-118.719-118.72-311.201-118.72-429.92 0-118.72 118.719-118.72 311.201 0 429.92 95 95.001 237.234 113.981 351.108 56.94l47.251 47.25c-140.654 80.942-323.383 61.297-443.614-58.935-143.713-143.713-143.713-376.717 0-520.43z" /></svg>